<?xml version="1.0" encoding="iso-8859-1"?>
<!-- Uploaded to: SVG Repo, www.svgrepo.com, Generator: SVG Repo Mixer Tools -->
<svg height="800px" width="800px" version="1.1" id="Layer_1" xmlns="http://www.w3.org/2000/svg" xmlns:xlink="http://www.w3.org/1999/xlink" 
	 viewBox="0 0 563.6 563.6" xml:space="preserve">
<circle style="fill:#666666;" cx="278.634" cy="280.109" r="255.997"/>
<g>
	<g>
		<path style="fill:#FFFFFF;" d="M10.18,286.912l-8.064-13.817c7.792-4.544,192.592-111.448,348.384-117.24
			c159.2-5.872,210.496,109.136,210.984,110.296l-14.704,6.312c-1.88-4.328-48.16-106.056-195.688-100.624
			C199.276,177.488,12.06,285.816,10.18,286.912z"/>
		<path style="fill:#FFFFFF;" d="M119.06,517.216l-12.424-10.112c1.072-1.312,107.112-133.096,107.112-276.072
			c0-139.44-92.944-168.672-96.904-169.848l4.495-15.352c1.088,0.312,108.416,33.312,108.416,185.2
			C229.772,379.808,123.58,511.68,119.06,517.216z"/>
		<path style="fill:#FFFFFF;" d="M288.652,563.6l-11.888-10.696c76.367-96.211,112.521-218.253,100.88-340.536
			C362.588,60.904,292.236,13.968,291.484,13.504L300.06,0c3.2,2,77.6,50.792,93.504,210.784
			C405.574,337.535,367.967,464.005,288.652,563.6z"/>
		<path style="fill:#FFFFFF;" d="M524.396,370.688c-104.712-135.384-50.288-253.663-47.92-258.64l14.448,6.872
			c-0.528,1.136-52.288,114.688,46.112,241.984L524.396,370.688z"/>
	</g>
</g>
</svg>