<?xml version="1.0" encoding="iso-8859-1"?>
<!-- Uploaded to: SVG Repo, www.svgrepo.com, Generator: SVG Repo Mixer Tools -->
<svg fill="#000000" height="800px" width="800px" version="1.1" id="Layer_1" xmlns="http://www.w3.org/2000/svg" xmlns:xlink="http://www.w3.org/1999/xlink" 
	 viewBox="0 0 512 512" xml:space="preserve">
<g>
	<g>
		<path d="M435.744,73.723l0.001,0.002C387.555,26.183,323.721,0,256.005,0C188.293,0,124.457,26.183,76.257,73.723
			C27.082,122.203,0,186.938,0,256.005v0.643c0.169,68.81,27.251,133.316,76.256,181.638C124.462,485.821,188.298,512,256.005,512
			c67.712,0,131.544-26.179,179.739-73.713c49.005-48.322,76.087-112.828,76.256-181.658v-0.624
			C512,186.939,484.918,122.203,435.744,73.723z M248.073,16.006v232.692h-84.536c-1.766-63.586-26.557-123.104-70.419-169.127
			C135.667,40.226,190.146,17.878,248.073,16.006z M81.824,90.711c40.916,43.033,64.084,98.607,65.842,157.987H15.982
			C17.74,189.313,40.907,133.74,81.824,90.711z M16.024,264.56h131.599c-2.046,58.893-25.183,114.005-65.8,156.738
			C41.203,378.571,18.066,323.453,16.024,264.56z M248.075,495.995c-57.924-1.872-112.404-24.216-154.956-63.556
			c43.557-45.718,68.317-104.77,70.377-167.879h84.579V495.995z M263.936,16.005c57.931,1.872,112.407,24.221,154.945,63.565
			c-43.862,46.028-68.654,105.546-70.42,169.128h-84.525V16.005z M263.936,495.995V264.56h84.567
			c2.056,63.094,26.818,122.153,70.378,167.879C376.338,471.777,321.862,494.122,263.936,495.995z M430.177,421.297
			c-40.621-42.742-63.758-97.859-65.801-156.737h131.599C493.928,323.462,470.793,378.574,430.177,421.297z M364.333,248.698
			c1.759-59.376,24.927-114.949,65.843-157.987c40.916,43.029,64.084,98.602,65.842,157.987H364.333z"/>
	</g>
</g>
</svg>