<?xml version="1.0" encoding="iso-8859-1"?>
<!-- Uploaded to: SVG Repo, www.svgrepo.com, Generator: SVG Repo Mixer Tools -->
<svg fill="#000000" height="800px" width="800px" version="1.1" id="Layer_1" xmlns="http://www.w3.org/2000/svg" xmlns:xlink="http://www.w3.org/1999/xlink" 
	 viewBox="0 0 512.003 512.003" xml:space="preserve">
<g>
	<g>
		<g>
			<path d="M256.002,42.668h42.667c4.713,0,8.533-3.82,8.533-8.533s-3.82-8.533-8.533-8.533h-42.667
				c-4.713,0-8.533,3.821-8.533,8.533S251.289,42.668,256.002,42.668z"/>
			<path d="M221.868,42.668h8.533c4.713,0,8.533-3.82,8.533-8.533s-3.82-8.533-8.533-8.533h-8.533c-4.713,0-8.533,3.821-8.533,8.533
				S217.156,42.668,221.868,42.668z"/>
			<path d="M477.606,93.868h-68.004V59.735V33.802c0-18.665-15.136-33.801-33.801-33.801H153.269
				c-18.665,0-33.801,15.136-33.801,33.801v25.933v17.067c-4.713,0-8.533,3.82-8.533,8.533v8.533c0,4.713,3.82,8.533,8.533,8.533
				v8.533c-4.713,0-8.533,3.82-8.533,8.533v8.533c0,4.713,3.82,8.533,8.533,8.533v42.667h-85.07C15.4,179.202,0,194.602,0,213.6
				v118.938c0,18.998,15.4,34.398,34.398,34.398h85.07v68.267v43c0,18.667,15.137,33.8,33.809,33.8h222.524
				c18.665,0,33.801-15.136,33.801-33.8v-43v-153.6h68.004c18.998,0,34.398-15.4,34.398-34.398V128.266
				C512.003,109.269,496.603,93.868,477.606,93.868z M153.269,17.068h222.532c9.239,0,16.734,7.495,16.734,16.734v17.399h-256
				V33.802C136.535,24.563,144.03,17.068,153.269,17.068z M17.067,332.537V213.6c0-9.572,7.759-17.331,17.331-17.331h93.604h59.467
				c9.572,0,17.331,7.759,17.331,17.331v118.938c0,9.572-7.759,17.331-17.331,17.331c-3.489,0-6.627,2.124-7.923,5.364
				l-9.143,22.857l-9.143-22.857c-1.296-3.24-4.434-5.364-7.923-5.364h-0.002h-25.334H34.398
				C24.826,349.868,17.067,342.109,17.067,332.537z M136.535,478.201v-34.466h105.434c-7.09,6.254-11.567,15.401-11.567,25.6
				s4.477,19.346,11.567,25.6h-88.692C144.031,494.935,136.535,487.441,136.535,478.201z M264.535,486.402
				c-9.427,0-17.067-7.64-17.067-17.067s7.64-17.067,17.067-17.067c9.427,0,17.067,7.64,17.067,17.067
				S273.962,486.402,264.535,486.402z M375.801,494.935h-88.7c7.09-6.254,11.567-15.401,11.567-25.6s-4.477-19.346-11.567-25.6
				h105.434v34.466C392.535,487.44,385.04,494.935,375.801,494.935z M392.535,426.668h-256v-59.733h11.023l14.921,37.303
				c1.431,3.576,4.677,5.364,7.924,5.364c3.247,0,6.493-1.788,7.924-5.364l15.129-37.821c16.145-2.832,28.413-16.923,28.413-33.879
				V213.6c0-18.998-15.4-34.398-34.398-34.398h-0.002h-50.934V68.268h256v25.6h-68h-0.002c-18.998,0-34.398,15.4-34.398,34.398
				v118.938c0,16.956,12.268,31.047,28.413,33.879l15.129,37.821c1.431,3.576,4.677,5.364,7.924,5.364
				c3.247,0,6.493-1.788,7.924-5.364l14.921-37.302h28.09V426.668z M494.937,247.204c0,9.572-7.759,17.331-17.331,17.331h-76.537
				h-42.4h-0.002c-3.489,0-6.627,2.124-7.923,5.364l-9.143,22.857l-9.143-22.857c-1.296-3.24-4.434-5.364-7.923-5.364
				c-9.572,0-17.331-7.759-17.331-17.331V128.266c0-9.572,7.759-17.331,17.331-17.331h76.534h76.537
				c9.572,0,17.331,7.759,17.331,17.331V247.204z"/>
			<path d="M177.736,265.518c1.4-5.518,1.707-10.137,1.326-13.723c-0.036-0.342-0.077-0.649-0.119-0.921
				c-2.177-21.14-18.602-37.54-39.719-37.54c-11.111,0-21.11,3.962-28.288,10.964c-7.178-7.003-17.177-10.964-28.288-10.964
				c-21.117,0-37.542,16.399-39.719,37.54c-0.043,0.272-0.083,0.579-0.119,0.921c-0.381,3.586-0.074,8.205,1.326,13.721
				c2.931,11.538,9.726,21.984,19.244,30.021l42.076,35.271c3.171,2.658,7.792,2.658,10.963,0.001l42.052-35.243
				C168.014,287.496,174.806,277.052,177.736,265.518z M147.478,282.509l-36.542,30.625l-36.571-30.656
				c-6.85-5.784-11.662-13.182-13.689-21.162c-0.895-3.525-1.067-6.113-0.896-7.717c0.006-0.055,0.105-0.769,0.105-0.769
				c1.235-12.89,10.725-22.429,22.763-22.429c9.561,0,17.121,4.559,20.514,12.053c3.027,6.685,12.521,6.685,15.548,0
				c3.393-7.494,10.953-12.053,20.514-12.053c12.038,0,21.528,9.539,22.763,22.429l0.139,0.92c0.136,1.452-0.036,4.04-0.931,7.567
				C159.168,269.294,154.355,276.695,147.478,282.509z"/>
			<path d="M443.735,162.135h-25.6l15.36-20.48c2.828-3.77,2.064-9.119-1.707-11.947c-3.77-2.828-9.119-2.064-11.947,1.707
				l-18.773,25.031l-18.773-25.031c-2.828-3.77-8.176-4.534-11.947-1.707c-3.77,2.828-4.534,8.176-1.707,11.947l15.36,20.48h-25.6
				c-4.713,0-8.533,3.82-8.533,8.533v68.267c0,4.713,3.82,8.533,8.533,8.533h85.333c4.713,0,8.533-3.82,8.533-8.533v-68.267
				C452.268,165.956,448.448,162.135,443.735,162.135z M366.935,179.202h25.6v51.2h-25.6V179.202z M435.202,230.402h-25.6v-51.2
				h25.6V230.402z"/>
		</g>
	</g>
</g>
</svg>