<?xml version="1.0" encoding="iso-8859-1"?>
<!-- Uploaded to: SVG Repo, www.svgrepo.com, Generator: SVG Repo Mixer Tools -->
<svg fill="#000000" height="800px" width="800px" version="1.1" id="Layer_1" xmlns="http://www.w3.org/2000/svg" xmlns:xlink="http://www.w3.org/1999/xlink" 
	 viewBox="0 0 512.008 512.008" xml:space="preserve">
<g>
	<g>
		<g>
			<path d="M487.951,169.787c15.066-17.79,24.053-40.125,24.053-64.443C512.004,46.975,460.247,0,396.804,0
				c-25.029,0-48.236,7.316-67.167,19.753c-23.724-7.399-48.448-11.221-73.634-11.221C119.332,8.532,8.537,119.327,8.537,255.999
				c0,0,0,0,0,0.001c0,0,0,0,0,0s0,0,0,0c0,26.953,4.344,53.346,12.744,78.448c-13.39,17.196-21.277,38.244-21.277,61.029
				c0,58.376,51.755,105.353,115.2,105.353c15.514,0,30.626-2.827,44.658-8.227c5.207,2.883,10.956,5.499,17.164,7.873
				c9.573,3.661,19.757,6.576,29.932,8.837c3.556,0.79,6.862,1.443,9.838,1.968c1.811,0.32,3.129,0.528,3.874,0.634
				c6.166,0.876,10.487-4.598,9.653-9.826c8.544,0.904,17.1,1.375,25.659,1.376c0.007,0,0.014,0.001,0.022,0.001
				c0.008,0,0.015-0.001,0.023-0.001C392.688,503.453,503.47,392.665,503.471,256c0,0,0,0,0,0c0,0,0,0,0,0c0,0,0,0,0-0.001
				C503.471,226.255,498.161,197.201,487.951,169.787z M432.605,403.959c-21.645-14.644-44.901-26.501-69.308-35.337
				c12.517-32.778,19.621-67.878,20.588-104.089H486.23C484.299,317.534,464.473,365.962,432.605,403.959z M213.012,451.147
				c4.679-6.862,8.452-14.176,11.285-21.804c3.999-10.77,6.107-22.171,6.107-33.857c0-0.001,0-0.003,0-0.004
				c0-0.001,0-0.002,0-0.003c0-31.302-14.89-59.322-38.48-78.583c-20.398-16.656-47.3-26.762-76.72-26.762
				c-0.981,0-1.961,0.012-2.938,0.035c-0.23,0.005-0.458,0.017-0.687,0.023c-0.726,0.021-1.452,0.042-2.175,0.076
				c-0.572,0.026-1.141,0.063-1.711,0.096c-0.37,0.022-0.742,0.039-1.111,0.064c-0.801,0.054-1.598,0.12-2.395,0.189
				c-0.13,0.011-0.26,0.02-0.39,0.032c-26.758,2.408-50.872,13.199-69.11,29.491c-5.217-17.986-8.228-36.619-8.924-55.605h110.761
				c0.006,0,0.011,0.001,0.017,0.001s0.011-0.001,0.017-0.001h110.913v221.698c-9.215-0.351-18.431-1.264-27.639-2.73
				C216.452,474.642,214.215,463.447,213.012,451.147z M84.06,102.658c21.195,13.794,43.872,24.954,67.609,33.269
				c-14.353,34.888-22.504,72.57-23.545,111.539H25.778C27.8,191.929,49.474,141.414,84.06,102.658z M247.471,153.473v93.994
				H145.194c1.049-37.175,8.94-73.1,22.786-106.318C193.571,148.569,220.238,152.747,247.471,153.473z M175.085,125.415
				c17.404-35.752,41.93-67.9,72.386-94.47V136.4C222.695,135.703,198.427,131.975,175.085,125.415z M158.619,120.267
				c-21.899-7.556-42.857-17.659-62.503-30.143c34.615-33.374,79.644-56.013,129.739-62.561
				C197.819,54.288,175.089,85.716,158.619,120.267z M264.537,481.049V367.067c26.027,0.734,51.492,4.815,75.91,12.016
				C322.898,417.841,297.11,452.635,264.537,481.049z M264.537,349.994v-85.46h102.277c-0.969,34.354-7.783,67.64-19.738,98.709
				C320.56,355.25,292.857,350.749,264.537,349.994z M494.937,105.344c0,21.304-8.424,40.906-22.47,56.2
				c-0.203,0.18-0.408,0.359-0.599,0.563c-15.639,16.724-37.422,27.664-61.474,30.677c-0.01,0.001-0.02,0.003-0.029,0.004
				c-0.838,0.105-1.679,0.198-2.522,0.284c-0.079,0.008-0.157,0.017-0.235,0.024c-0.778,0.077-1.558,0.144-2.34,0.204
				c-0.128,0.01-0.255,0.021-0.384,0.031c-0.748,0.055-1.498,0.1-2.249,0.14c-0.15,0.008-0.298,0.018-0.448,0.026
				c-0.775,0.038-1.552,0.066-2.331,0.087c-0.117,0.003-0.234,0.009-0.352,0.012c-0.898,0.022-1.799,0.034-2.701,0.034
				c-14.698,0-28.944-2.929-41.981-8.489c-2.539-1.083-5.446-0.871-7.8,0.57c-5.192,3.176-11.302,6.078-18.137,8.691
				c-6.766,2.587-13.951,4.79-21.234,6.625c4.609-11.405,7.303-25.612,8.628-41.663c0.021-0.255,0.031-0.51,0.029-0.764
				c-0.013-1.778-0.581-3.515-1.635-4.962c-4.715-6.475-8.434-13.44-11.103-20.735c-3.214-8.788-4.9-18.058-4.9-27.554
				c0-0.815,0.014-1.627,0.039-2.438c0.006-0.205,0.018-0.408,0.026-0.612c0.023-0.614,0.05-1.228,0.088-1.84
				c0.013-0.219,0.031-0.436,0.046-0.655c0.042-0.609,0.089-1.217,0.145-1.824c0.018-0.191,0.037-0.381,0.056-0.571
				c0.065-0.654,0.137-1.308,0.219-1.959c0.017-0.133,0.034-0.266,0.051-0.399c0.097-0.748,0.204-1.495,0.322-2.239
				c0.005-0.032,0.01-0.064,0.015-0.095c3.582-22.316,16.565-42.479,36.377-56.581c0.313-0.222,0.595-0.465,0.866-0.714
				c16.549-11.495,37.3-18.355,59.884-18.355C451.171,17.067,494.937,56.789,494.937,105.344z M282.146,95.103
				c-0.004,0.041-0.008,0.081-0.012,0.122c-0.082,0.788-0.157,1.578-0.22,2.372c-0.014,0.18-0.024,0.36-0.037,0.54
				c-0.049,0.665-0.097,1.33-0.132,1.999c-0.019,0.361-0.03,0.724-0.045,1.086c-0.021,0.499-0.046,0.996-0.059,1.496
				c-0.022,0.819-0.033,1.64-0.034,2.463c0,0.054-0.002,0.108-0.002,0.163c0,0.001,0,0.002,0,0.003c0,0.002,0,0.003,0,0.005
				c0,10.961,1.852,21.673,5.381,31.848c2.898,8.357,6.923,16.352,12.012,23.816c-2.057,21.183-7.022,38.311-14.932,46.322
				c-1.794,1.817-2.546,4.021-2.486,6.158c0.132,4.701,4.197,9.077,9.759,8.287c0.745-0.106,2.063-0.314,3.874-0.634
				c2.976-0.525,6.282-1.178,9.838-1.968c10.175-2.261,20.359-5.177,29.932-8.837c6.208-2.374,11.957-4.99,17.165-7.873
				c14.032,5.401,29.144,8.227,44.658,8.227c0.358,0,0.713-0.009,1.07-0.012c0.578-0.005,1.156-0.007,1.732-0.02
				c0.514-0.011,1.025-0.032,1.538-0.05c0.423-0.014,0.847-0.025,1.269-0.044c0.575-0.025,1.148-0.06,1.721-0.093
				c0.349-0.02,0.698-0.038,1.046-0.061c0.628-0.041,1.253-0.091,1.878-0.141c0.284-0.023,0.568-0.044,0.851-0.069
				c0.678-0.059,1.354-0.127,2.029-0.197c0.218-0.023,0.437-0.044,0.655-0.068c0.733-0.08,1.463-0.168,2.192-0.26
				c0.147-0.019,0.294-0.037,0.441-0.056c0.795-0.104,1.586-0.215,2.376-0.334c0.064-0.01,0.129-0.019,0.193-0.029
				c22.417-3.403,42.679-12.725,58.762-26.178c6.919,20.685,10.872,42.295,11.684,64.382H375.485c-0.006,0-0.011-0.001-0.017-0.001
				s-0.011,0.001-0.017,0.001H264.537V145.1c0-0.011,0.002-0.022,0.002-0.034s-0.002-0.022-0.002-0.034V25.763
				c16.541,0.61,32.833,2.986,48.702,7.062C296.055,49.37,284.681,71.027,282.146,95.103z M183.122,484.535
				c-6.835-2.614-12.945-5.516-18.137-8.691c-2.355-1.44-5.261-1.653-7.8-0.57c-13.037,5.561-27.283,8.489-41.981,8.489
				c-54.368,0-98.133-39.724-98.133-88.286c0-19.749,7.241-38.037,19.491-52.785c0.302-0.267,0.591-0.558,0.864-0.878
				c16.15-18.905,39.875-31.194,66.199-34c0.106-0.011,0.212-0.022,0.318-0.033c0.763-0.079,1.528-0.148,2.295-0.211
				c0.217-0.018,0.434-0.036,0.652-0.052c0.66-0.05,1.322-0.092,1.984-0.13c0.283-0.016,0.565-0.034,0.848-0.048
				c0.617-0.031,1.236-0.053,1.855-0.073c0.307-0.01,0.613-0.024,0.92-0.031c0.735-0.018,1.471-0.026,2.209-0.029
				c0.166-0.001,0.331-0.006,0.498-0.006c25.608,0,48.862,8.815,66.3,23.213c19.583,16.169,31.831,39.381,31.833,65.067
				c0,9.524-1.695,18.821-4.928,27.633c-2.667,7.266-6.376,14.204-11.075,20.656c-1.009,1.385-1.566,3.037-1.623,4.735
				c-0.003,0.076-0.011,0.152-0.012,0.229c0,0.064,0.006,0.128,0.007,0.192c0.003,0.19,0.006,0.38,0.021,0.571
				c1.325,16.052,4.019,30.258,8.629,41.664C197.073,489.325,189.888,487.122,183.122,484.535z M286.149,484.436
				c30.006-28.6,53.936-62.586,70.618-100.022c22.593,8.114,44.151,18.959,64.269,32.336
				C385.794,452.926,338.768,477.56,286.149,484.436z"/>
			<path d="M178.946,378.882c-2.164-21.141-18.599-37.548-39.72-37.548c-11.115,0-21.112,3.96-28.288,10.963
				c-7.176-7.002-17.173-10.963-28.288-10.963c-21.122,0-37.556,16.407-39.72,37.548c-0.042,0.27-0.082,0.576-0.118,0.917
				c-0.377,3.58-0.07,8.194,1.323,13.707c2.934,11.547,9.728,21.993,19.246,30.03l42.075,35.271
				c3.171,2.658,7.792,2.658,10.963,0.001l42.052-35.243c9.546-8.07,16.337-18.514,19.267-30.048
				c1.396-5.524,1.702-10.138,1.326-13.718C179.028,379.458,178.988,379.152,178.946,378.882z M161.194,389.326
				c-2.024,7.967-6.836,15.368-13.714,21.182l-36.542,30.625l-36.571-30.656c-6.85-5.784-11.662-13.182-13.689-21.162
				c-0.891-3.525-1.063-6.121-0.894-7.73c0.006-0.056,0.103-0.76,0.103-0.76c1.227-12.883,10.722-22.424,22.763-22.424
				c9.567,0,17.12,4.556,20.514,12.053c3.027,6.685,12.521,6.685,15.548,0c3.394-7.497,10.948-12.053,20.514-12.053
				c12.041,0,21.535,9.541,22.763,22.424l0.136,0.908C162.26,383.194,162.087,385.789,161.194,389.326z"/>
			<path d="M349.871,162.133h85.333c4.713,0,8.533-3.821,8.533-8.533V85.333c0-4.713-3.82-8.533-8.533-8.533h-25.6l15.36-20.48
				c2.828-3.77,2.064-9.119-1.707-11.947s-9.119-2.064-11.947,1.707l-18.773,25.031L373.764,46.08
				c-2.828-3.77-8.176-4.534-11.947-1.707s-4.534,8.176-1.707,11.947l15.36,20.48h-25.6c-4.713,0-8.533,3.82-8.533,8.533V153.6
				C341.337,158.313,345.158,162.133,349.871,162.133z M426.671,145.067h-25.6v-51.2h25.6V145.067z M358.404,93.867h25.6v51.2h-25.6
				V93.867z"/>
		</g>
	</g>
</g>
</svg>