<?xml version="1.0" encoding="iso-8859-1"?>
<!-- Uploaded to: SVG Repo, www.svgrepo.com, Generator: SVG Repo Mixer Tools -->
<svg height="800px" width="800px" version="1.1" id="Layer_1" xmlns="http://www.w3.org/2000/svg" xmlns:xlink="http://www.w3.org/1999/xlink" 
	 viewBox="0 0 512 512" xml:space="preserve">
<path style="fill:#77757F;" d="M503.975,5.692c-5.095-4.42-11.861-6.412-18.539-5.458L159.618,46.779
	c-11.464,1.64-19.982,11.458-19.982,23.04v93.091v189.903c-13.704-7.284-29.595-11.48-46.545-11.48
	c-51.33,0-93.091,38.28-93.091,85.333S41.761,512,93.091,512s93.091-38.28,93.091-85.333V183.093l279.272-39.897v170.829
	c-13.704-7.284-29.595-11.48-46.545-11.48c-51.33,0-93.091,38.28-93.091,85.333s41.76,85.333,93.091,85.333
	s93.091-38.28,93.091-85.333V116.365V23.274C511.999,16.526,509.073,10.112,503.975,5.692z M93.091,465.454
	c-25.665,0-46.545-17.4-46.545-38.788c0-21.388,20.88-38.788,46.545-38.788s46.545,17.4,46.545,38.788
	C139.637,448.054,118.756,465.454,93.091,465.454z M418.908,426.667c-25.665,0-46.545-17.4-46.545-38.788
	s20.88-38.788,46.545-38.788s46.545,17.4,46.545,38.788S444.574,426.667,418.908,426.667z M465.454,96.179l-279.272,39.897V90.003
	l279.272-39.897V96.179z"/>
<path style="fill:#57575C;" d="M186.182,136.077V90.003l131.878-18.84V24.144L159.618,46.779
	c-11.464,1.638-19.982,11.458-19.982,23.04v93.091v189.903c-13.704-7.284-29.595-11.48-46.545-11.48
	c-51.33,0-93.091,38.28-93.091,85.333S41.761,512,93.091,512s93.091-38.28,93.091-85.333V183.093l131.878-18.84v-47.019
	L186.182,136.077z M93.091,465.454c-25.665,0-46.545-17.4-46.545-38.788c0-21.388,20.88-38.788,46.545-38.788
	s46.545,17.4,46.545,38.788C139.637,448.054,118.756,465.454,93.091,465.454z"/>
</svg>